<svg version="1.2" xmlns="http://www.w3.org/2000/svg" viewBox="0 0 2100 1837" width="2100" height="1837">
	<defs>
		<clipPath clipPathUnits="userSpaceOnUse" id="cp1">
			<path d="m934.89 424.2c135.03 22.62 254.33 83.17 349.18 169.11 68.88 17.57 104.81-17.41 96.6-73.86q508.96-496.64 512.7-495.65c133.94-91.94 279.49 111.5 165.65 204.64-379.81 281-577.18 422.39-577.18 422.39-50.99-17.76-80.77 3.08-93.11 61.49 102.27 146.76 149.43 333.14 117.33 524.82-38.55 230.18-182.68 415.89-373.47 514.58q46.1-30.22 86.09-71.34c292.24-318.23-245.51-415.17 75.27-581.22-122.81 2.6-281.82 144.27-166.9 263.89q70.15 79.2 17.14 159.64 0.29-92.21-83.79-108.85 40.54 23.88 48.17 61.34c31.69 142.36-172.35 107.65-180.12-43.54-10.42-178.07 194.5-233.97 199.25-461.82 16.68-207.52-155.73-290.53-290.28-406.73-85.02-79.92-146.12-191.75-70.05-301.12-12.49 55.39-3.34 108.03 27.45 153.16 46.04-1.72 92.9 1.18 140.07 9.07zm690.73 829.77c-33.46 199.75-166.12 360.68-346.18 449.83 150.84-104.83 260.69-267.36 293.28-461.96 30.56-182.46-12.29-360.39-107.15-504.09 127.55 140.67 191.82 326.47 160.05 516.22zm-1612.11-229.71c24.32-109.25 79.18-204.74 155.18-281.26-49.43 72-86.14 154.38-106.24 244.72-57.12 256.59 34.23 511.92 217.32 677.62-208.43-151.96-320.43-397.76-266.26-641.08zm465.8 717.64c-251.65-140.36-400.2-431.11-349.27-735.2 48.09-287.17 260.49-505.13 522.85-571.23-2.88 48.95 10.24 99.29 45.04 142.14 104.23 151.81 266.07 225.85 157.02 416.94q-45.91 84.53-190.65 221c-67.29-127.09 330.82-306.05-25.4-451.6q56.26 38.58 72.24 93.68c47.31 130.92-256.74 245.42-263.22 536.35q-72.64-143.1 19.79-299.51c-229.09 153.11-209.27 478.36 11.6 647.43zm-20.15-185.02q66.88 91.65 160.99 80.48-72.82-51.26-42.89-159.33 35.34 75.6 96.99 78.51-17.91-205.39 279.73-469.74-131.08 181.9-160.96 331.19-21.37 133.41 53.43 219.68 98.3 107.95 259.93 8.57c-53.74 273.86-630.95 263.92-647.22-89.36zm1436.38-1420.42c-4.86 29.07 14.75 56.58 43.83 61.45 29.07 4.87 56.59-14.75 61.45-43.82 4.87-29.07-14.75-56.58-43.82-61.46-29.07-4.86-56.59 14.76-61.46 43.83z"/>
		</clipPath>
	</defs>
	<style>
		.s0 { fill: #F7EFE3 } 
	</style>
	<g id="Layer 1">
		<g id="Clip-Path" clip-path="url(#cp1)">
			<g>
				<path id="&lt;Compound Path&gt;" fill-rule="evenodd" class="s0" d="m934.89 423.2c135.03 22.62 254.33 83.17 349.18 169.11 68.88 17.57 104.81-17.41 96.6-73.86q508.96-496.64 512.7-495.65c133.94-91.94 279.49 111.5 165.65 204.64-379.81 281-577.18 422.39-577.18 422.39-50.99-17.76-80.77 3.08-93.11 61.49 102.27 146.76 149.43 333.14 117.33 524.82-38.55 230.18-182.68 415.89-373.47 514.58q46.1-30.22 86.09-71.34c292.24-318.23-245.51-415.17 75.27-581.22-122.81 2.6-281.82 144.27-166.9 263.89q70.15 79.2 17.14 159.64 0.29-92.21-83.79-108.85 40.54 23.88 48.17 61.34c31.69 142.36-172.35 107.65-180.12-43.54-10.42-178.07 194.5-233.97 199.25-461.82 16.68-207.52-155.73-290.53-290.28-406.73-85.02-79.92-146.12-191.75-70.05-301.12-12.49 55.39-3.34 108.03 27.45 153.16 46.04-1.72 92.9 1.18 140.07 9.07zm690.73 829.77c-33.46 199.75-166.12 360.68-346.18 449.83 150.84-104.83 260.69-267.36 293.28-461.96 30.56-182.46-12.29-360.39-107.15-504.09 127.55 140.67 191.82 326.47 160.05 516.22zm-1612.11-229.71c24.32-109.25 79.18-204.74 155.18-281.26-49.43 72-86.14 154.38-106.24 244.72-57.12 256.59 34.23 511.92 217.32 677.62-208.43-151.96-320.43-397.76-266.26-641.08zm465.8 717.64c-251.65-140.36-400.2-431.11-349.27-735.2 48.09-287.17 260.49-505.13 522.85-571.23-2.88 48.95 10.24 99.29 45.04 142.14 104.23 151.81 266.07 225.85 157.02 416.94q-45.91 84.53-190.65 221c-67.29-127.09 330.82-306.05-25.4-451.6q56.26 38.58 72.24 93.68c47.31 130.92-256.74 245.42-263.22 536.35q-72.64-143.1 19.79-299.51c-229.09 153.11-209.27 478.36 11.6 647.43zm-20.15-185.02q66.88 91.65 160.99 80.48-72.82-51.26-42.89-159.33 35.34 75.6 96.99 78.51-17.91-205.39 279.73-469.74-131.08 181.9-160.96 331.19-21.37 133.41 53.43 219.68 98.3 107.95 259.93 8.57c-53.74 273.86-630.95 263.92-647.22-89.36zm1436.38-1420.42c-4.86 29.07 14.75 56.58 43.83 61.45 29.07 4.87 56.59-14.75 61.45-43.82 4.87-29.07-14.75-56.58-43.82-61.46-29.07-4.86-56.59 14.76-61.46 43.83z"/>
			</g>
		</g>
	</g>
</svg>